<svg xmlns="http://www.w3.org/2000/svg" xmlns:xlink="http://www.w3.org/1999/xlink" width="57" height="57" viewBox="0 0 57 57"><defs><style>.a{fill:#01b477;}.b{fill:#fff;}.c{filter:url(#a);}</style><filter id="a" x="0" y="0" width="57" height="57" filterUnits="userSpaceOnUse"><feOffset dy="3" input="SourceAlpha"/><feGaussianBlur stdDeviation="3" result="b"/><feFlood flood-color="#01b477" flood-opacity="0.271"/><feComposite operator="in" in2="b"/><feComposite in="SourceGraphic"/></filter></defs><g transform="translate(-152 -927)"><g class="c" transform="matrix(1, 0, 0, 1, 152, 927)"><circle class="a" cx="19.5" cy="19.5" r="19.5" transform="translate(9 6)"/></g><g transform="translate(169 941.168)"><path class="b" d="M80.872.65a.65.65,0,0,0-.65-.65A8.315,8.315,0,0,0,72.57,5.083,8.315,8.315,0,0,0,64.917,0a.65.65,0,0,0-.65.65A8.314,8.314,0,0,0,71.92,8.927v4.246a.65.65,0,0,0,1.3,0V8.927A8.314,8.314,0,0,0,80.872.65ZM65.6,1.332A7.016,7.016,0,0,1,71.887,7.62,7.017,7.017,0,0,1,65.6,1.332ZM73.252,7.62A7.016,7.016,0,0,1,79.54,1.332,7.017,7.017,0,0,1,73.252,7.62Z" transform="translate(-61.484)"/><path class="b" d="M7.023,166.77a2.124,2.124,0,0,0-2.941-.063V164.1A3.436,3.436,0,0,0,.65,160.666h0a.65.65,0,0,0-.65.65v8.349a.65.65,0,0,0,.19.459l3.984,3.984v1.122a.65.65,0,0,0,.65.65h4.87a.65.65,0,0,0,.65-.65v-3.717a3.41,3.41,0,0,0-1.005-2.427Zm2.022,7.811H5.474v-.742a.65.65,0,0,0-.19-.459L1.3,169.4v-7.328a2.14,2.14,0,0,1,1.484,2.03v4.175a.649.649,0,0,0,.19.459l2.783,2.783a.65.65,0,0,0,.919-.919l-1.739-1.739A.826.826,0,1,1,6.1,167.689L8.42,170a2.119,2.119,0,0,1,.625,1.509v3.068Z" transform="translate(0 -153.709)"/><path class="b" d="M282.828,160.667h0A3.436,3.436,0,0,0,279.4,164.1v2.61a2.124,2.124,0,0,0-2.941.063l-2.316,2.316a3.41,3.41,0,0,0-1.005,2.427v3.717a.65.65,0,0,0,.65.65h4.87a.65.65,0,0,0,.65-.65v-1.122l3.984-3.984a.65.65,0,0,0,.19-.459v-8.349A.65.65,0,0,0,282.828,160.667Zm-.65,8.729-3.984,3.984a.65.65,0,0,0-.19.459v.742h-3.571v-3.068a2.119,2.119,0,0,1,.625-1.509l2.316-2.316a.826.826,0,0,1,1.169,1.169L276.8,170.6a.65.65,0,1,0,.919.919l2.783-2.783a.65.65,0,0,0,.19-.459V164.1a2.14,2.14,0,0,1,1.484-2.03V169.4Z" transform="translate(-261.307 -153.71)"/></g></g></svg>