<svg xmlns="http://www.w3.org/2000/svg" xmlns:xlink="http://www.w3.org/1999/xlink" width="57" height="57" viewBox="0 0 57 57"><defs><style>.a{fill:#058a71;}.b{fill:#fff;}.c{filter:url(#a);}</style><filter id="a" x="0" y="0" width="57" height="57" filterUnits="userSpaceOnUse"><feOffset dy="3" input="SourceAlpha"/><feGaussianBlur stdDeviation="3" result="b"/><feFlood flood-color="#058a71" flood-opacity="0.184"/><feComposite operator="in" in2="b"/><feComposite in="SourceGraphic"/></filter></defs><g transform="translate(-153 -1016)"><g class="c" transform="matrix(1, 0, 0, 1, 153, 1016)"><circle class="a" cx="19.5" cy="19.5" r="19.5" transform="translate(9 6)"/></g><g transform="translate(169.721 1029.092)"><g transform="translate(0 21.933)"><path class="b" d="M22.41,490.667H.477a.477.477,0,1,0,0,.954H22.41a.477.477,0,1,0,0-.954Z" transform="translate(0 -490.667)"/></g><g transform="translate(0.954 16.211)"><path class="b" d="M24.671,362.667H21.81a.477.477,0,0,0-.477.477v5.722a.477.477,0,0,0,.477.477h2.861a.477.477,0,0,0,.477-.477v-5.722A.477.477,0,0,0,24.671,362.667Zm-.477,5.722H22.287v-4.768h1.907v4.768Z" transform="translate(-21.333 -362.667)"/></g><g transform="translate(6.675 11.443)"><path class="b" d="M152.671,256H149.81a.477.477,0,0,0-.477.477v10.49a.477.477,0,0,0,.477.477h2.861a.477.477,0,0,0,.477-.477v-10.49A.477.477,0,0,0,152.671,256Zm-.477,10.49h-1.907v-9.536h1.907v9.536Z" transform="translate(-149.333 -256)"/></g><g transform="translate(12.397 13.35)"><path class="b" d="M280.671,298.667H277.81a.477.477,0,0,0-.477.477v8.582a.477.477,0,0,0,.477.477h2.861a.477.477,0,0,0,.477-.477v-8.582A.477.477,0,0,0,280.671,298.667Zm-.477,8.582h-1.907v-7.629h1.907Z" transform="translate(-277.333 -298.667)"/></g><g transform="translate(18.118 7.629)"><path class="b" d="M408.671,170.667H405.81a.477.477,0,0,0-.477.477v14.3a.477.477,0,0,0,.477.477h2.861a.477.477,0,0,0,.477-.477v-14.3A.477.477,0,0,0,408.671,170.667Zm-.477,14.3h-1.907v-13.35h1.907Z" transform="translate(-405.333 -170.667)"/></g><g transform="translate(0.954 8.582)"><path class="b" d="M23.24,192a1.907,1.907,0,1,0,1.907,1.907A1.909,1.909,0,0,0,23.24,192Zm0,2.861a.954.954,0,1,1,.954-.954A.955.955,0,0,1,23.24,194.861Z" transform="translate(-21.333 -192)"/></g><g transform="translate(6.675 3.814)"><path class="b" d="M151.24,85.333a1.907,1.907,0,1,0,1.907,1.907A1.909,1.909,0,0,0,151.24,85.333Zm0,2.861a.954.954,0,1,1,.954-.954A.955.955,0,0,1,151.24,88.194Z" transform="translate(-149.333 -85.333)"/></g><g transform="translate(12.397 5.722)"><path class="b" d="M279.24,128a1.907,1.907,0,1,0,1.907,1.907A1.909,1.909,0,0,0,279.24,128Zm0,2.861a.954.954,0,1,1,.954-.954A.955.955,0,0,1,279.24,130.861Z" transform="translate(-277.333 -128)"/></g><g transform="translate(18.118)"><path class="b" d="M407.24,0a1.907,1.907,0,1,0,1.907,1.907A1.909,1.909,0,0,0,407.24,0Zm0,2.861a.954.954,0,1,1,.954-.954A.955.955,0,0,1,407.24,2.861Z" transform="translate(-405.333)"/></g><g transform="translate(14.839 2.441)"><path class="b" d="M336.477,54.747a.477.477,0,0,0-.674,0l-3.7,3.7a.477.477,0,0,0,.674.674l3.7-3.7A.477.477,0,0,0,336.477,54.747Z" transform="translate(-331.963 -54.608)"/></g><g transform="translate(9.481 5.636)"><path class="b" d="M215.778,126.971l-3.063-.873a.477.477,0,0,0-.261.917l3.063.873a.477.477,0,0,0,.261-.917Z" transform="translate(-212.108 -126.078)"/></g><g transform="translate(3.394 6.136)"><path class="b" d="M80.379,137.453a.477.477,0,0,0-.669-.076l-3.6,2.867a.477.477,0,0,0,.3.85.481.481,0,0,0,.3-.1l3.6-2.867A.476.476,0,0,0,80.379,137.453Z" transform="translate(-75.935 -137.273)"/></g></g></g></svg>