<svg width="132" height="1423" viewBox="0 0 132 1423" fill="none" xmlns="http://www.w3.org/2000/svg">
<path d="M131 577.059C100.946 579.605 72.7513 592.661 51.3694 613.934C29.9876 635.207 16.7869 663.334 14.0869 693.375C44.1409 690.829 72.3362 677.773 93.7182 656.5C115.1 635.227 128.301 607.099 131 577.059Z" stroke="#CED5DD" stroke-miterlimit="10"/>
<path d="M130.999 831.42C128.3 801.38 115.099 773.253 93.7178 751.98C72.3362 730.707 44.1414 717.651 14.0879 715.104C16.7874 745.145 29.9878 773.272 51.3693 794.545C72.7508 815.818 100.945 828.874 130.999 831.42Z" stroke="#CED5DD" stroke-miterlimit="10"/>
<path d="M130.913 1167.41C100.859 1169.95 72.6644 1183.01 51.2825 1204.28C29.9007 1225.55 16.7 1253.68 14 1283.72C44.054 1281.18 72.2493 1268.12 93.6313 1246.85C115.013 1225.57 128.214 1197.45 130.913 1167.41Z" stroke="#CED5DD" stroke-miterlimit="10"/>
<path d="M130.912 1421.77C128.213 1391.73 115.012 1363.6 93.6309 1342.33C72.2493 1321.05 44.0545 1308 14.001 1305.45C16.7005 1335.49 29.9009 1363.62 51.2823 1384.89C72.6638 1406.16 100.859 1419.22 130.912 1421.77Z" stroke="#CED5DD" stroke-miterlimit="10"/>
<path d="M131 281.654C100.946 284.2 72.7511 297.257 51.3692 318.529C29.9873 339.802 16.7867 367.93 14.0869 397.97C44.1408 395.425 72.3361 382.368 93.718 361.096C115.1 339.823 128.3 311.695 131 281.654Z" stroke="#CED5DD" stroke-miterlimit="10"/>
<path d="M130.999 536.011C128.298 505.972 115.098 477.845 93.7163 456.574C72.3349 435.302 44.1407 422.246 14.0879 419.7C16.7882 449.74 29.9888 477.866 51.3703 499.138C72.7518 520.41 100.946 533.465 130.999 536.011Z" stroke="#CED5DD" stroke-miterlimit="10"/>
<path d="M130.913 872C100.859 874.546 72.6642 887.602 51.2823 908.875C29.9004 930.148 16.6998 958.276 14 988.316C44.0539 985.77 72.2492 972.714 93.6311 951.441C115.013 930.169 128.214 902.04 130.913 872Z" stroke="#CED5DD" stroke-miterlimit="10"/>
<path d="M130.912 1126.36C128.212 1096.32 115.011 1068.19 93.6294 1046.92C72.248 1025.65 44.0538 1012.59 14.001 1010.05C16.7013 1040.09 29.9019 1068.21 51.2834 1089.48C72.6649 1110.76 100.859 1123.81 130.912 1126.36Z" stroke="#CED5DD" stroke-miterlimit="10"/>
<g opacity="0.584">
<path d="M131 1C100.946 3.54598 72.7511 16.6024 51.3692 37.8751C29.9873 59.1478 16.7867 87.2756 14.0869 117.316C44.1408 114.77 72.3361 101.714 93.718 80.4413C115.1 59.1685 128.3 31.0405 131 1Z" stroke="#CED5DD" stroke-miterlimit="10"/>
<path d="M130.999 255.361C128.3 225.32 115.1 197.192 93.7184 175.919C72.3368 154.646 44.1418 141.589 14.0879 139.043C16.7868 169.083 29.9869 197.212 51.3685 218.485C72.75 239.758 100.945 252.815 130.999 255.361Z" stroke="#CED5DD" stroke-miterlimit="10"/>
</g>
</svg>
